<?xml version="1.0" standalone="no"?><!DOCTYPE svg PUBLIC "-//W3C//DTD SVG 1.1//EN" "http://www.w3.org/Graphics/SVG/1.1/DTD/svg11.dtd"><svg t="1606051702521" class="icon" viewBox="0 0 1024 1024" version="1.1" xmlns="http://www.w3.org/2000/svg" p-id="2613" xmlns:xlink="http://www.w3.org/1999/xlink" width="40" height="40"><defs><style type="text/css"></style></defs><path d="M1000.448 369.664l-151.04-238.08c-13.312-20.992-40.96-27.136-61.44-13.824L34.304 594.432c-20.992 13.312-27.136 40.96-13.824 61.44l151.04 238.08c13.312 20.48 40.96 26.624 61.44 13.824l753.664-476.672c20.48-12.8 26.624-40.448 13.824-61.44z m-30.208 35.84L216.576 882.176c-6.656 4.096-15.36 2.048-19.456-4.608L46.08 640c-4.096-6.656-2.048-15.36 4.608-19.456L803.84 143.36c6.656-4.096 15.36-2.048 19.456 4.608l151.04 238.08c4.608 6.656 2.56 15.36-4.096 19.456zM320.512 254.464l12.288 30.208 16.384-28.16 32.256-2.56-22.016-24.064 7.68-31.744-29.696 13.312-27.648-16.896 3.584 32.256-24.576 20.992 31.744 6.656z m192-89.088l-15.36-28.672-13.312 29.696-32.256 6.144 24.064 21.504-4.096 32.256 28.16-16.384 29.184 13.824-6.656-31.744 22.528-23.552-32.256-3.072z m292.352 478.72l-25.6-19.968v32.256l-27.136 18.432 31.232 10.24 9.216 31.232 19.456-26.112 32.768 1.024-18.944-26.624 11.264-30.208-32.256 9.728zM699.904 773.12l-12.288-30.208-16.384 28.16-32.256 2.56 21.504 24.064-7.68 31.744 29.696-12.8 27.648 17.408-3.072-32.256 24.576-20.992-31.744-7.68z m-192.512 88.064l15.36 28.672 13.312-29.696 32.256-5.632-24.064-22.016 4.608-32.256-28.16 15.872-29.184-14.336 6.656 31.744-22.528 23.552 31.744 4.096zM218.624 380.416l25.6 19.968 0.512-32.256 27.136-17.92-30.72-10.24-8.704-31.232-19.456 26.112-32.768-2.048 18.944 26.624-11.264 30.72c-0.512 0 30.72-9.728 30.72-9.728z m-114.176 140.288c-3.584-137.728 63.488-273.408 187.904-352.256s275.968-80.896 399.36-19.456l29.696-18.944c-36.352-20.48-75.776-35.328-116.736-44.544-55.296-12.288-111.104-13.824-166.912-4.608-57.344 9.728-111.616 30.208-161.28 61.952-50.176 31.232-92.16 71.68-125.44 119.296-32.256 46.08-54.784 97.792-67.072 152.576-9.216 40.96-12.288 82.944-9.728 124.416 0 0.512 30.208-18.432 30.208-18.432z m808.96-20.992c3.584 137.728-63.488 273.408-187.904 352.256s-275.968 80.896-399.36 19.456l-29.696 18.944c36.352 20.48 75.776 35.328 116.736 44.544 55.296 12.288 111.104 13.824 166.912 4.608 57.344-9.728 111.616-30.208 161.28-61.44s91.648-71.68 124.928-119.296c32.256-46.08 54.784-97.792 67.072-152.576 9.216-41.472 12.288-82.944 9.728-124.416l-29.696 17.92z m-531.456-189.44c34.816-22.016 73.216-33.792 111.616-36.352l46.08-29.184c-60.928-7.168-121.856 6.656-174.08 39.936S274.944 367.104 255.488 424.96l46.08-29.184c18.944-33.792 45.568-63.488 80.384-85.504z m253.952 399.872c-34.816 22.016-73.216 33.792-111.616 36.352l-46.08 29.184c60.928 7.168 121.344-6.656 174.08-39.936 52.224-33.28 90.624-82.432 110.08-140.288l-46.08 29.184c-18.432 33.792-45.568 63.488-80.384 85.504z" p-id="2614" fill="#d81e06"></path><path d="M290.304 624.128L256 570.368l-101.888 64c-2.56 1.536-5.12 4.096-7.168 6.656l-11.776-6.144c4.608-2.048 8.704-3.584 11.776-5.632l100.864-63.488c-1.024-10.752-1.536-16.896-1.536-17.92 0-1.024 0.512-1.536 2.048-2.56 1.024-0.512 3.584-1.024 7.68-1.024h18.432c8.192 0 13.312 0.512 14.848 0.512s2.56 1.024 3.584 2.048c1.024 2.048 0 5.632-3.584 10.752l24.576 39.424c3.072 5.12 5.632 9.216 8.192 12.288l6.144 8.192c1.024 1.536 1.024 3.072 0 5.12s-3.072 4.608-6.656 8.192-7.168 6.144-10.752 8.192c-3.584 2.048-6.144 3.584-7.168 3.584s-2.048-0.512-3.072-2.048l-5.632-9.216-85.504 53.76 40.96 65.024c2.56 4.608 6.144 7.168 10.24 8.192 4.096 1.024 9.728 0 17.408-3.584 7.68-3.072 17.92-8.704 30.208-16.384 31.232-19.456 50.176-33.28 56.832-40.448 6.656-7.168 9.728-14.848 9.728-23.04s-2.56-19.968-8.192-36.352c-0.512-2.048-0.512-3.584 0-4.096 1.024-0.512 2.048 1.024 4.096 4.096 1.536 3.072 3.584 6.656 5.632 9.728 5.12 7.68 9.216 12.8 13.312 14.848 4.096 2.048 9.216 3.072 15.36 3.072 3.584 0 6.656 1.536 8.704 4.608 2.048 3.584 2.048 9.216-0.512 16.896-2.56 7.68-9.216 15.872-19.968 25.088-10.752 8.704-28.16 20.48-51.2 34.816-29.696 18.432-51.2 30.72-64.512 36.352s-24.064 7.68-31.232 5.12c-7.168-2.048-14.336-8.704-20.992-19.968l-47.616-75.776c-6.144-9.728-11.264-17.92-15.872-24.064 7.68-3.584 14.848-6.656 22.016-9.728 7.168-2.56 11.776-4.096 12.8-4.096s2.56 0.512 3.072 1.536c1.024 2.048 0.512 4.608-2.56 7.68l7.168 11.264 86.016-51.712zM496.64 497.152c-3.072-28.16-15.36-60.928-36.352-97.28 6.656-3.072 15.36-6.144 26.624-9.216 10.752-3.072 16.896-4.096 17.408-2.56 1.024 1.024 0 3.584-2.56 6.656-1.536 1.536-1.536 8.192 0 20.48s2.048 22.528 2.56 31.744l31.744-19.968c-1.024-15.36-0.512-24.064 2.048-25.6 1.536-1.024 8.704-1.024 20.48 0 12.288 1.024 18.944 2.56 19.968 4.608 1.024 2.048 0.512 3.584-2.048 5.632l-28.672 17.92c6.144-1.536 11.776-2.56 17.408-3.584 5.632-1.024 8.704-0.512 9.216 0.512 1.024 1.536 0 3.584-2.56 6.144-1.536 1.536-1.536 3.584-1.024 6.656 0.512 3.072 1.536 7.68 3.584 13.312 7.68 25.088 10.752 48.64 9.728 70.144 20.48 4.608 41.472 5.12 63.488 1.024 3.072-0.512 5.12-0.512 5.632 0.512 0.512 1.024-0.512 2.56-3.072 5.12s-5.12 7.68-7.68 13.824c-2.56 6.656-3.584 12.8-3.584 18.944 0 2.56-1.024 3.584-2.048 4.608-2.048 1.024-10.24 0-24.576-3.584s-25.088-7.168-31.744-10.24c-3.584 18.432-12.288 36.352-26.112 53.76-13.312 17.408-21.504 27.136-24.064 28.672-1.024 0.512-2.048 0.512-2.56 0-0.512-1.024 0-2.56 1.536-4.608 20.992-30.208 31.744-59.392 32.768-87.04-20.992-13.312-40.96-34.816-59.392-64-0.512 5.632-2.048 11.776-3.584 18.944 1.024 0.512 1.536 0.512 1.536 1.024 1.024 1.536-0.512 4.608-4.608 8.704 8.704 15.36 16.384 30.72 24.064 47.104 7.168 16.384 11.776 27.136 13.312 33.28 1.536 6.144 1.536 11.776 1.024 16.896s-3.072 9.728-7.168 14.336c-3.584 4.096-7.168 7.68-10.24 9.216-3.072 2.048-5.632 1.536-7.68-1.536-5.12-7.68-13.824-9.216-27.136-5.632-2.048 0.512-3.584 0.512-4.096 0-0.512-0.512 0.512-1.536 3.072-3.072 2.56-1.024 5.632-3.072 10.24-5.632 4.096-2.56 7.68-6.144 10.752-10.24 3.072-4.096 3.584-8.704 2.56-12.8-1.024-4.608-4.096-11.776-8.704-22.528-4.608-10.752-12.8-25.6-24.576-44.544l-21.504 13.312c11.264 24.064 18.432 44.544 20.992 61.952s1.024 34.816-5.12 52.224c-6.144 17.408-9.728 26.624-10.752 27.136h-0.512c-0.512-0.512 0-3.072 1.024-6.656 4.608-22.528 3.072-45.056-5.12-68.608s-23.552-52.736-46.592-88.064l-16.384 10.24c-3.072 2.048-5.12 4.096-6.656 7.168l-12.288-6.656c3.584-1.536 7.68-4.096 11.264-6.144l66.56-41.984c-0.512-14.848 0.512-22.528 2.56-24.064 1.536-1.024 7.168-1.024 17.92 0 10.752 0.512 16.896 2.048 18.432 4.608s1.024 4.608-1.536 6.144l-52.736 33.28c0 1.536 0 3.072 0.512 4.608s2.56 5.12 5.632 11.264c3.072 5.632 6.144 11.264 8.704 16.384l18.432-11.264c-1.024-9.216 0-14.848 2.56-16.384 1.024-0.512 4.608-1.024 10.752-2.048 5.632-3.072 12.288-3.072 18.944-2.56z m-121.344-39.936c11.776-7.168 22.528-10.752 32.256-10.752 9.728 0 16.384 3.072 20.48 9.216 2.56 4.096 3.072 9.216 1.536 14.336-1.536 5.12-4.608 9.216-9.216 12.288-2.048 1.536-4.608 2.048-7.168 1.536-2.56 0-4.608-1.024-6.144-2.048-1.536-1.536-3.584-4.096-6.144-7.68-2.56-4.096-6.144-7.168-11.264-10.24-5.12-2.56-9.216-4.096-12.288-3.584s-4.608 0.512-5.12 0c-1.536 0 0-1.536 3.072-3.072z m129.024-0.512c0 3.072 0 8.704-1.024 16.384 16.896 18.944 35.84 32.768 57.344 41.984-3.072-20.48-11.776-46.08-26.624-77.312l-29.696 18.944zM681.984 303.616c-5.12 0.512-9.216-1.536-12.288-6.144-3.072-4.608-7.168-7.68-11.776-8.704-4.608-1.536-8.704-1.024-12.288 0.512-3.584 2.048-5.632 2.56-6.144 1.536-0.512-0.512 2.048-3.072 7.68-7.168 5.12-4.096 9.728-7.168 12.8-9.216 9.728-6.144 17.92-9.216 23.552-8.192 6.144 0.512 10.24 3.072 13.312 7.68 2.048 3.072 2.56 6.656 2.048 10.752-0.512 4.096-2.56 7.68-5.632 11.776l53.76-33.792c0-9.728 0-16.384 0.512-20.48 0-3.584 1.024-5.632 1.536-6.144 1.536-1.024 9.216-1.024 22.016 0.512 12.8 1.536 19.968 3.072 20.992 4.608 1.024 1.536 0 3.584-3.072 5.12L708.096 296.96c3.072-0.512 4.608 0 5.632 1.024 1.024 1.536 0 3.584-3.072 7.168-3.072 3.072-6.656 8.704-10.24 16.384-4.096 7.68-7.68 14.336-11.264 20.48-3.584 5.632-10.24 15.36-20.48 28.16l89.6-56.32c-3.584-2.048-8.192-3.072-13.312-3.584-5.12-0.512-13.312 0-24.064 1.024-2.048 0.512-3.584 0.512-3.584 0-0.512-0.512 0.512-1.024 2.048-2.048 8.192-5.12 19.456-10.24 33.792-15.36s25.088-6.144 31.744-3.584c6.656 3.072 11.264 6.656 14.336 11.264 3.072 4.608 3.584 9.728 1.536 14.848-2.048 5.12-4.608 8.704-7.68 10.24-3.072 2.048-6.144 2.56-9.216 2.56-3.072-0.512-6.656-2.048-9.728-5.12s-6.144-5.12-8.704-7.168c-43.008 37.888-69.632 61.44-79.36 70.144-9.728 8.704-15.36 14.848-17.92 17.408s-3.584 4.608-4.608 5.12c-0.512 0.512-1.536 0.512-2.56 0s-5.12-3.584-12.288-9.216-11.264-8.704-11.264-9.216c-0.512-1.024 0-2.56 2.56-4.096 5.12-3.584 9.216-8.192 12.8-13.824 3.584-6.144 7.68-14.848 11.776-27.136 4.096-12.288 6.144-20.48 6.656-25.088l-61.44 38.4c-3.072 2.048-5.12 4.096-6.656 7.168l-12.288-6.656c3.584-1.536 7.68-4.096 11.264-6.144l79.872-50.176z m90.112 83.968l-37.888 24.064c5.632 11.264 9.216 20.48 10.752 27.648 1.536 6.656 2.048 13.824 0.512 21.504-1.024 7.168-4.096 15.872-9.216 24.576s-12.8 19.456-23.04 30.72-17.408 17.92-22.016 20.992c-0.512 0.512-1.024 0.512-1.024 0s0.512-1.024 1.536-2.56c12.288-16.384 20.48-29.696 25.088-39.936 4.608-9.728 6.144-19.968 5.12-30.208-1.024-10.24-5.632-22.528-13.312-36.864l-43.008 27.136c-3.072 2.048-5.12 4.096-6.656 7.168l-12.288-6.656c3.584-1.536 7.68-4.096 11.264-6.144l45.568-28.672c-2.048-3.584-4.608-7.68-7.168-12.288s-7.168-10.752-12.8-18.944c16.896-8.192 27.136-12.288 30.208-13.312 3.584-1.024 5.632-0.512 6.656 1.024s0.512 4.096-1.536 7.168l10.24 19.968 37.376-23.552-13.312-21.504c-2.048-3.072-4.608-7.168-7.68-11.264 13.824-6.656 23.552-10.752 29.184-12.8 5.632-2.048 8.704-2.048 9.728-0.512 1.024 1.536 0 4.608-3.072 8.704l12.288 19.968 16.896-10.752c-0.512-5.632 0-10.752 0-15.872 0.512-4.608 0.512-8.192 1.024-9.216 0.512-1.536 1.024-2.56 1.536-3.072 2.048-1.536 9.216-1.024 20.992 0 11.776 1.536 18.944 3.072 19.968 5.632 1.536 2.56 0 4.608-4.096 7.168l-52.224 32.768 31.744 50.688c2.048 3.072 3.584 5.12 4.096 6.144l2.56 3.584c1.024 2.048-0.512 5.12-5.12 10.24s-8.192 8.704-11.776 10.752c-3.584 2.048-5.632 3.072-6.144 3.072-0.512 0-1.024-0.512-2.048-1.536l-38.912-65.024z" p-id="2615" fill="#d81e06"></path></svg>