<?xml version="1.0" standalone="no"?><!DOCTYPE svg PUBLIC "-//W3C//DTD SVG 1.1//EN" "http://www.w3.org/Graphics/SVG/1.1/DTD/svg11.dtd"><svg t="1606131865134" class="icon" viewBox="0 0 1024 1024" version="1.1" xmlns="http://www.w3.org/2000/svg" p-id="2236" xmlns:xlink="http://www.w3.org/1999/xlink" width="40" height="40"><defs><style type="text/css"></style></defs><path d="M512 863.296c-193.504 0-350.912-157.408-350.912-350.912S318.528 161.44 512 161.44c193.472 0 350.912 157.408 350.912 350.912S705.504 863.296 512 863.296z m0-651.712c-165.856 0-300.8 134.944-300.8 300.8s134.944 300.8 300.8 300.8 300.8-134.944 300.8-300.8-134.944-300.8-300.8-300.8z m-119.808 295.456a37.6 37.6 0 0 1-37.6-37.6v-50.144a37.6 37.6 0 1 1 75.2 0v50.144c0 20.768-16.832 37.6-37.6 37.6z m241.28 0a37.6 37.6 0 0 1-37.6-37.6v-50.144a37.6 37.6 0 1 1 75.2 0v50.144a37.632 37.632 0 0 1-37.6 37.6z m-44.384 179.616a24.128 24.128 0 0 1-15.136-5.312c-13.536-10.816-37.28-17.536-61.952-17.536-24.672 0-48.416 6.72-61.952 17.536a24.32 24.32 0 0 1-30.304-37.92c22.4-17.888 56.032-28.128 92.256-28.128s69.856 10.272 92.256 28.128a24.256 24.256 0 0 1-15.168 43.232z" p-id="2237" fill="#d81e06"></path></svg>