<?xml version="1.0" standalone="no"?><!DOCTYPE svg PUBLIC "-//W3C//DTD SVG 1.1//EN" "http://www.w3.org/Graphics/SVG/1.1/DTD/svg11.dtd"><svg t="1606287704478" class="icon" viewBox="0 0 1024 1024" version="1.1" xmlns="http://www.w3.org/2000/svg" p-id="8957" xmlns:xlink="http://www.w3.org/1999/xlink" width="40" height="40"><defs><style type="text/css"></style></defs><path d="M870.4 218.273684L587.452632 53.894737c-45.810526-26.947368-102.4-26.947368-148.210527 0L153.6 218.273684c-45.810526 26.947368-75.452632 75.452632-75.452632 129.347369v328.757894c0 53.894737 29.642105 102.4 75.452632 129.347369L436.547368 970.105263c24.252632 13.473684 48.505263 18.863158 75.452632 18.863158 26.947368 0 51.2-5.389474 75.452632-18.863158l282.947368-164.378947c45.810526-26.947368 75.452632-75.452632 75.452632-129.347369V347.621053c0-53.894737-29.642105-102.4-75.452632-129.347369z m37.726316 458.105263c0 40.421053-21.557895 75.452632-56.589474 97.010527l-282.947368 164.378947c-35.031579 18.863158-78.147368 18.863158-110.484211 0L172.463158 773.389474c-35.031579-18.863158-56.589474-56.589474-56.589474-97.010527V347.621053c0-40.421053 21.557895-75.452632 56.589474-97.010527l282.947368-164.378947c16.168421-10.778947 37.726316-16.168421 56.589474-16.168421 18.863158 0 37.726316 5.389474 56.589474 16.168421l282.947368 164.378947c35.031579 18.863158 56.589474 56.589474 56.589474 97.010527v328.757894z" fill="#8a8a8a" p-id="8958"></path><path d="M512 307.2c-113.178947 0-204.8 91.621053-204.8 204.8s91.621053 204.8 204.8 204.8 204.8-91.621053 204.8-204.8-91.621053-204.8-204.8-204.8z m0 371.873684c-91.621053 0-167.073684-75.452632-167.073684-167.073684 0-91.621053 75.452632-167.073684 167.073684-167.073684 91.621053 0 167.073684 75.452632 167.073684 167.073684 0 91.621053-75.452632 167.073684-167.073684 167.073684z" fill="#8a8a8a" p-id="8959"></path></svg>