<?xml version="1.0" standalone="no"?><!DOCTYPE svg PUBLIC "-//W3C//DTD SVG 1.1//EN" "http://www.w3.org/Graphics/SVG/1.1/DTD/svg11.dtd"><svg t="1606051677615" class="icon" viewBox="0 0 1024 1024" version="1.1" xmlns="http://www.w3.org/2000/svg" p-id="2284" data-spm-anchor-id="a313x.7781069.0.i0" xmlns:xlink="http://www.w3.org/1999/xlink" width="40" height="40"><defs><style type="text/css"></style></defs><path d="M839.2 384.064a351.68 351.68 0 0 0-66.048-106.816 350.4 350.4 0 0 0-287.456-115.552c-49.632 3.68-97.92 17.952-141.6 41.856a353.888 353.888 0 0 0-139.2 138.144 349.632 349.632 0 0 0-44.064 174.432 349.248 349.248 0 0 0 37.376 153.408 353.6 353.6 0 0 0 187.84 170.24 351.072 351.072 0 0 0 293.888-19.424 353.664 353.664 0 0 0 147.872-154.784 349.12 349.12 0 0 0 35.232-142.144 348.64 348.64 0 0 0-23.84-139.36z m-48.896 242.88a303.328 303.328 0 0 1-155.616 159.936 300.992 300.992 0 0 1-155.776 24.288 298.944 298.944 0 0 1-119.424-39.808 303.68 303.68 0 0 1-113.728-119.168 299.136 299.136 0 0 1-34.688-138.432 299.52 299.52 0 0 1 40.736-152.928 303.008 303.008 0 0 1 144.544-126.784 300.992 300.992 0 0 1 232.256 0.32 302.592 302.592 0 0 1 131.744 107.488 299.232 299.232 0 0 1 50.112 129.856 301.216 301.216 0 0 1-20.16 155.232z" p-id="2285" fill="#88e80a"></path><path d="M429.696 471.776c0.352-17.248 0.032-34.496 0.128-51.744a37.76 37.76 0 0 0-45.344-38.08 37.76 37.76 0 0 0-29.888 35.84c0 18.016-0.224 36.064 0.128 54.048 0.992 19.616 19.488 36 39.072 34.688 18.464-0.384 34.944-16.256 35.904-34.752z m241.568-52.864a37.568 37.568 0 0 0-75.2-1.376v52.992a37.664 37.664 0 0 0 71.552 14.624c2.72-5.632 3.808-11.968 3.648-18.208v-48.032z m-88.992 197.024c-5.76 1.504-9.888 6.08-14.976 8.864-14.816 8.288-31.808 11.904-48.64 12.768-24.416 0.864-50.528-3.328-70.304-18.624a24.416 24.416 0 0 0-17.92-3.648 24.448 24.448 0 0 0-19.392 19.584 24.576 24.576 0 0 0 10.144 24.384c24.736 18.624 56.16 26.24 86.72 27.008 30.24 0.576 61.408-5.44 87.328-21.536 5.888-3.968 12.48-7.84 15.68-14.432a24.352 24.352 0 0 0-28.64-34.368z" p-id="2286" fill="#88e80a"></path></svg>